<?xml version="1.0" encoding="UTF-8"?>
<svg id="email" xmlns="http://www.w3.org/2000/svg" viewBox="0 0 100 100">
  <path d="m11.11,68.91c.08.49.13.99.25,1.48.59,2.88,2.6,5.26,5.34,6.33,1.14.45,2.36.67,3.59.64h59.41c.63,0,1.27-.04,1.89-.16,3.25-.54,5.91-2.89,6.84-6.05.31-.96.46-1.97.45-2.98V31.87c.04-1.97-.55-3.89-1.68-5.5-1.34-1.94-3.43-3.24-5.77-3.59-.58-.09-1.18-.14-1.77-.14H20.33c-1.54-.04-3.07.31-4.45,1.02-2.48,1.28-4.19,3.67-4.62,6.43-.06.33-.1.67-.15,1.01v37.8h0Zm3.31-36.96l10.57,5.81,12.97,7.13c3.95,2.17,7.89,4.34,11.84,6.52.12.08.27.08.38,0,2.82-1.55,5.63-3.09,8.45-4.62l18.02-9.84,8.97-4.9c.1-.06.21-.1.33-.12l-22.51,18.06,18.58,19.18-.03.04c-.06-.04-.12-.07-.17-.11l-18.44-13.45c-1.41-1.03-2.82-2.05-4.22-3.09-.12-.12-.31-.12-.43,0-2.84,1.93-5.68,3.86-8.53,5.79-.12.11-.31.11-.43,0-2.95-1.94-5.9-3.88-8.85-5.82-.12-.1-.29-.1-.41,0-3.37,2.5-6.75,4.99-10.12,7.49l-11.18,8.26c-.44.32-.87.64-1.35.93l18.66-19.56L13.73,31.63l.02-.04.66.36h.01Z" fill="#dc3545" fill-rule="evenodd"/>
</svg>